<svg width="44" height="44" viewBox="0 0 44 44" fill="none" xmlns="http://www.w3.org/2000/svg">
<path d="M5.24588 38.6217L5.24592 38.6216L5.24054 38.6163C1.56149 34.9881 -0.164833 29.4637 0.871284 24.3984L0.871419 24.3984L0.873504 24.3868C1.88212 18.7889 6.18115 13.8923 11.6253 12.2443C13.2993 13.9404 14.9871 15.6254 16.6733 17.3086C17.7623 18.3958 18.8507 19.4823 19.9341 20.5707L19.934 20.5707L19.9413 20.5777C20.1157 20.746 20.2956 20.9297 20.481 21.1191C20.5752 21.2153 20.6709 21.313 20.768 21.4109C20.4303 21.4095 20.0909 21.4068 19.7505 21.4042C18.4993 21.3945 17.2342 21.3846 15.9889 21.4331L15.9889 21.433L15.9768 21.4337C12.9385 21.626 10.3813 24.4638 10.5418 27.5154C10.5234 30.5919 13.2596 33.3458 16.3409 33.3289C19.2367 33.3356 22.1382 33.3349 25.0385 33.3342C27.5933 33.3336 30.1472 33.333 32.6956 33.3374C33.4291 34.0718 34.1624 34.8065 34.8958 35.5413C37.4815 38.1319 40.0685 40.7237 42.6672 43.3037C42.5706 43.3031 42.4719 43.3016 42.3708 43.3001C42.2827 43.2988 42.1927 43.2975 42.1005 43.2967L42.1005 43.2967L42.096 43.2967C37.8384 43.2973 33.5814 43.2973 29.3247 43.2973C25.068 43.2973 20.8116 43.2973 16.5552 43.2979L16.5539 43.298C12.3676 43.3091 8.1843 41.6084 5.24588 38.6217Z" fill="#7C4EE4" stroke="black"/>
<path d="M11.152 10.4056L11.1326 10.3807L11.1101 10.3584C9.81062 9.06769 8.51579 7.76669 7.21968 6.46439C5.23483 4.47006 3.24695 2.47269 1.23456 0.504612C6.05326 0.520244 10.8728 0.517675 15.6914 0.515106C18.9585 0.513362 22.2253 0.511622 25.4909 0.515555C25.8626 0.52052 26.2264 0.518058 26.5841 0.515633C27.652 0.508399 28.6662 0.501527 29.6789 0.69377L29.6914 0.696131L29.7039 0.697859C33.2047 1.18043 36.5238 2.89511 38.9469 5.4659L38.9469 5.46592L38.9509 5.47005C41.6431 8.26145 43.2217 12.0845 43.3446 15.9619C43.4362 19.1545 42.5322 22.375 40.8032 25.0616C38.8166 28.1119 35.7799 30.5303 32.2961 31.5629C30.6211 29.8635 28.9291 28.1758 27.2388 26.4899C26.1839 25.4376 25.1295 24.3859 24.0803 23.3324L24.0733 23.3254L24.0661 23.3187C23.8824 23.1484 23.7156 22.9733 23.5371 22.7859C23.4523 22.6969 23.3648 22.6051 23.2716 22.5097C23.2312 22.4683 23.1901 22.4267 23.1482 22.385C24.6847 22.4072 26.222 22.4006 27.7552 22.3807L27.7552 22.3808L27.7626 22.3806C30.7967 22.2963 33.4405 19.5508 33.3883 16.5097C33.4701 14.0432 31.8138 11.7027 29.5324 10.857C28.6253 10.4691 27.6436 10.4707 26.8038 10.4783C24.219 10.4808 21.6345 10.4805 19.0499 10.4802L19.0498 10.4802C16.4646 10.4799 13.8793 10.4795 11.2939 10.4821L11.2914 10.4821C11.2397 10.4824 11.2036 10.4717 11.152 10.4056Z" fill="#7C4EE4" stroke="black"/>
</svg>
